<?xml version="1.0" encoding="iso-8859-1"?>
<!-- Generator: Adobe Illustrator 17.1.0, SVG Export Plug-In . SVG Version: 6.00 Build 0)  -->
<!DOCTYPE svg PUBLIC "-//W3C//DTD SVG 1.1//EN" "http://www.w3.org/Graphics/SVG/1.1/DTD/svg11.dtd">
<svg version="1.1" id="Capa_1" xmlns="http://www.w3.org/2000/svg" xmlns:xlink="http://www.w3.org/1999/xlink" x="0px" y="0px"
	 viewBox="0 0 400.261 400.261" style="enable-background:new 0 0 400.261 400.261;" xml:space="preserve">
<path d="M343.653,167.446c0.103-0.514,0.161-1.039,0.161-1.569v-41.77c0-30.715-30.281-44.692-46.293-47.792
	c-2.344-0.456-4.77,0.163-6.611,1.683c-1.842,1.52-2.909,3.783-2.909,6.171v36.235c-4.711-2.728-10.173-4.298-16-4.298h-55.542
	c-17.645,0-32,14.332-32,31.948c0,0.066,0.005,0.132,0.005,0.198h-40.447c-1.705,0-7.512-0.353-10.902-4.884l-22.57-32.095
	c-1.498-2.13-3.939-3.398-6.544-3.398H30.469c-7.322,0-13.027,2.98-15.652,8.176c-2.615,5.178-1.644,11.512,2.663,17.388
	l27.459,38.624C18.352,185.106,0,212.447,0,244.001c0,44.162,35.929,80.091,80.091,80.091c32.877,0,61.177-19.928,73.493-48.337
	h79.254c4.106,0,8.508-0.905,12.78-2.479c11.875,30.348,41.274,50.816,74.552,50.816c44.162,0,80.091-35.929,80.091-80.091
	C400.261,208.504,376.669,177.591,343.653,167.446z M216.458,132.107H272c8.822,0,16,7.154,16,15.948
	c0,8.794-7.178,15.948-16,15.948h-55.542c-8.822,0-16-7.154-16-15.948C200.458,139.262,207.636,132.107,216.458,132.107z
	 M80.091,308.092c-35.34,0-64.091-28.751-64.091-64.091c0-35.334,28.751-64.081,64.091-64.081c14.694,0,28.239,4.985,39.06,13.337
	l-11.589,11.683c-7.991-5.645-17.502-8.7-27.476-8.7c-26.34,0-47.769,21.427-47.769,47.764c0,26.34,21.429,47.769,47.769,47.769
	c26.334,0,47.758-21.429,47.758-47.769c0-4.418-3.582-8-8-8s-8,3.582-8,8c0,17.517-14.247,31.769-31.758,31.769
	c-17.517,0-31.769-14.251-31.769-31.769c0-17.515,14.251-31.764,31.769-31.764c5.698,0,11.17,1.499,15.969,4.301l-21.654,21.832
	c-3.112,3.137-3.091,8.202,0.046,11.313c1.56,1.548,3.597,2.32,5.634,2.32c2.058,0,4.116-0.79,5.68-2.366l44.746-45.112
	c8.542,10.889,13.655,24.591,13.655,39.474C144.162,279.341,115.42,308.092,80.091,308.092z M158.598,259.755
	c1.02-5.096,1.564-10.362,1.564-15.754c0-44.157-35.92-80.081-80.071-80.081c-6.754,0-13.312,0.849-19.582,2.431l-30.024-42.231
	c-0.027-0.038-0.054-0.075-0.081-0.112c-0.032-0.044-0.063-0.087-0.094-0.129c0.052,0,0.105-0.001,0.16-0.001h69.376l20.239,28.78
	c0.035,0.049,0.069,0.097,0.105,0.146c7.834,10.625,20.218,11.451,23.827,11.451h44.876c5.573,9.417,15.84,15.75,27.566,15.75H272
	c17.645,0,32-14.332,32-31.948c0-1.002-0.052-1.992-0.143-2.97c0.091-0.482,0.143-0.978,0.143-1.486V95.032
	c9.853,4.008,23.813,12.595,23.813,29.076v15.948h-7.446c-4.418,0-8,3.582-8,8s3.582,8,8,8h7.446v6.827l-3.792,4.355
	c-0.015,0.017-0.03,0.034-0.044,0.051l-35.985,41.336c-2.749,2.505-5.203,5.327-7.315,8.402L252.3,249.624
	c-0.142,0.163-0.277,0.332-0.405,0.505c-3.714,5.038-12.797,9.625-19.056,9.625H158.598z M292.828,227.685l21.659,21.94
	c1.565,1.585,3.629,2.38,5.694,2.38c2.03,0,4.061-0.768,5.62-2.307c3.145-3.104,3.177-8.169,0.073-11.313l-21.657-21.939
	c4.747-2.774,10.262-4.373,16.146-4.373c17.712,0,32.122,14.407,32.122,32.116c0,17.712-14.41,32.122-32.122,32.122
	c-17.706,0-32.111-14.41-32.111-32.122C288.25,238.159,289.924,232.512,292.828,227.685z M320.17,308.092
	c-27.483,0-51.662-17.44-60.528-43.01c1.862-1.61,3.534-3.343,4.92-5.176l8.124-9.332c3.133,23.527,23.311,41.739,47.675,41.739
	c26.535,0,48.122-21.587,48.122-48.122c0-26.531-21.587-48.116-48.122-48.116c-0.079,0-0.156,0.006-0.235,0.006l12.927-14.849
	c29.47,6.02,51.208,32.282,51.208,62.77C384.261,279.341,355.51,308.092,320.17,308.092z"/>
<g>
</g>
<g>
</g>
<g>
</g>
<g>
</g>
<g>
</g>
<g>
</g>
<g>
</g>
<g>
</g>
<g>
</g>
<g>
</g>
<g>
</g>
<g>
</g>
<g>
</g>
<g>
</g>
<g>
</g>
</svg>
