<?xml version="1.0" encoding="iso-8859-1"?>
<!-- Generator: Adobe Illustrator 18.0.0, SVG Export Plug-In . SVG Version: 6.00 Build 0)  -->
<!DOCTYPE svg PUBLIC "-//W3C//DTD SVG 1.1//EN" "http://www.w3.org/Graphics/SVG/1.1/DTD/svg11.dtd">
<svg version="1.1" id="Capa_1" xmlns="http://www.w3.org/2000/svg" xmlns:xlink="http://www.w3.org/1999/xlink" x="0px" y="0px"
	 viewBox="0 0 346.82 346.82" style="enable-background:new 0 0 346.82 346.82;" xml:space="preserve">
<g>
	<path d="M173.751,280.709c11.677,0,21.177-9.501,21.177-21.178c0-11.677-9.5-21.178-21.177-21.178
		c-11.678,0-21.178,9.501-21.178,21.178C152.573,271.208,162.073,280.709,173.751,280.709z M173.751,246.354
		c7.266,0,13.177,5.912,13.177,13.178c0,7.266-5.911,13.178-13.177,13.178c-7.267,0-13.178-5.912-13.178-13.178
		C160.573,252.265,166.484,246.354,173.751,246.354z"/>
	<path d="M273.44,170.372c4.083-5.214,5.513-11.892,3.923-18.32l-10.023-40.547c-2.365-9.574-10.905-16.26-20.767-16.26H156.82
		c-2.209,0-4,1.791-4,4v63.423c0,8.772,7.137,15.91,15.91,15.91h87.866C263.219,178.577,269.358,175.586,273.44,170.372z
		 M160.82,162.667v-59.423h85.754c6.174,0,11.521,4.186,13.002,10.179l10.022,40.548c0.994,4.024,0.1,8.205-2.456,11.469
		c-2.556,3.265-6.399,5.137-10.546,5.137H168.73C164.368,170.577,160.82,167.029,160.82,162.667z"/>
	<path d="M342.82,250.876h-35.899v-11.552h1.354c2.209,0,4-1.791,4-4s-1.791-4-4-4h-1.354v-50c0-0.338-0.043-0.675-0.128-1.003
		L280.86,80.195c-4.923-19.009-22.075-32.286-41.712-32.286H48.438c-23.76,0-43.089,19.33-43.089,43.089v140.324H4
		c-2.209,0-4,1.791-4,4c0,2.209,1.791,4,4,4h1.349v15.553c0,2.209,1.791,4,4,4h113.753c2.209,0,4-1.791,4-4v-7.982
		c0-10.334,8.408-18.742,18.743-18.742h4.148c-9.483,7.197-15.621,18.583-15.621,31.379c0,21.714,17.666,39.379,39.38,39.379
		c21.714,0,39.379-17.666,39.379-39.379c0-12.796-6.138-24.182-15.621-31.379h3.403c10.335,0,18.742,8.408,18.742,18.742v7.982
		c0,2.209,1.791,4,4,4h30.67h48.597h39.899c2.209,0,4-1.791,4-4C346.82,252.667,345.029,250.876,342.82,250.876z M48.438,55.91
		h190.71c10.174,0,19.524,4.381,26.017,11.552H22.438C28.863,60.371,38.139,55.91,48.438,55.91z M13.349,239.323h13.966v11.553
		H13.349V239.323z M95.28,250.876H35.314V111.655c0-4.638,3.773-8.411,8.411-8.411H86.87c4.638,0,8.411,3.773,8.411,8.411V250.876z
		 M119.102,250.876H103.28v-11.552h16.92c-0.71,2.402-1.098,4.941-1.098,7.57V250.876z M205.13,259.531
		c0,17.303-14.076,31.379-31.379,31.379s-31.38-14.077-31.38-31.379c0-17.303,14.077-31.379,31.38-31.379
		S205.13,242.229,205.13,259.531z M200.912,220.152h-55.067c-8.94,0-16.864,4.414-21.722,11.172H103.28V111.655
		c0-9.049-7.362-16.411-16.411-16.411H43.725c-9.049,0-16.411,7.362-16.411,16.411v119.668H13.349V90.999
		c0-5.577,1.314-10.851,3.639-15.538H270.61c1.048,2.124,1.895,4.376,2.507,6.74l25.805,99.633v49.49h-76.287
		C217.776,224.566,209.852,220.152,200.912,220.152z M254.324,250.876h-26.67v-3.982c0-2.629-0.388-5.168-1.098-7.57h72.365v11.552
		H254.324z"/>
	<path d="M50.412,180.577c-2.209,0-4,1.791-4,4v12.667c0,2.209,1.791,4,4,4c2.209,0,4-1.791,4-4v-12.667
		C54.412,182.368,52.621,180.577,50.412,180.577z"/>
</g>
<g>
</g>
<g>
</g>
<g>
</g>
<g>
</g>
<g>
</g>
<g>
</g>
<g>
</g>
<g>
</g>
<g>
</g>
<g>
</g>
<g>
</g>
<g>
</g>
<g>
</g>
<g>
</g>
<g>
</g>
</svg>
