<?xml version="1.0" encoding="iso-8859-1"?>
<!-- Generator: Adobe Illustrator 18.1.1, SVG Export Plug-In . SVG Version: 6.00 Build 0)  -->
<svg version="1.1" id="Capa_1" xmlns="http://www.w3.org/2000/svg" xmlns:xlink="http://www.w3.org/1999/xlink" x="0px" y="0px"
	 viewBox="0 0 30.639 30.639" style="enable-background:new 0 0 30.639 30.639;" xml:space="preserve">
<g>
	<g>
		<g>
			<path d="M2.038,23.464l1.465-1.374l4.112-10.521l4.109,10.521l1.466,1.374l2.037,3.571l-0.906-4.037
				l0.157-1.863L12.04,14.51h1.352v1.068h0.66v-2.799h-0.66v1.068h-1.594L10.22,9.558c0.168-0.381,0.266-0.799,0.266-1.24
				c0-1.557-1.162-2.831-2.662-3.033V1.638H6.998v3.647C5.497,5.488,4.335,6.762,4.335,8.319c0,0.624,0.188,1.203,0.509,1.689
				l-1.413,3.84h-1.66V12.78h-0.66v2.799h0.66v-1.068h1.415L0.75,21.134l0.157,1.863L0,27.035L2.038,23.464z M7.46,6.199
				c1.173,0,2.125,0.951,2.125,2.126c0,1.174-0.952,2.126-2.125,2.126c-1.175,0-2.128-0.952-2.128-2.126
				C5.332,7.15,6.285,6.199,7.46,6.199z"/>
			<path d="M7.46,9.403c0.577,0,1.047-0.47,1.047-1.048c0-0.581-0.47-1.048-1.047-1.048
				c-0.581,0-1.05,0.467-1.05,1.048C6.41,8.933,6.879,9.403,7.46,9.403z"/>
			<path d="M1.09,27.122l-0.234,0.484C0.901,27.627,3.817,29,7.794,29c1.999,0,4.27-0.35,6.573-1.392
				l-0.223-0.49C7.497,30.125,1.153,27.153,1.09,27.122z"/>
		</g>
		<g>
			<path d="M20.895,19.328c-0.499,0-0.986,0.062-1.458,0.174l0.697-0.696c0.25-0.028,0.503-0.049,0.761-0.049
				c3.242,0,6.093,2.302,6.779,5.47l0.075,0.344H14.367l0.57-0.568h12.097C26.278,21.274,23.752,19.328,20.895,19.328z"/>
			<path d="M12.314,26.82h0.588l-0.001-0.782l0.053-0.051H13.1v0.833h0.53l0.001-0.833h0.197v0.833h0.493
				v-1.681h0.196v1.681h0.464v-0.833h0.195v0.833h0.588v-0.835l0.197,0.002v0.833h0.532v-0.833h0.196v0.833h0.541v-1.681h0.195
				v1.681h0.532v-0.833l0.197-0.002v0.835h0.587v-0.833h0.197v0.833h0.532v-0.835l0.196,0.002v0.833h0.542v-1.681h0.194v1.681h0.489
				v-0.833h0.196v0.833h0.588v-0.833h0.196v0.833h0.533v-0.833H22.6v0.833h0.493v-1.681h0.197v1.681h0.462v-0.833h0.196v0.833h0.589
				v-0.833h0.195v0.833h0.531v-0.833h0.198v0.833h0.54v-1.681h0.197v1.681h0.532v-0.833h0.196v0.833h0.587v-0.833h0.197v0.833h0.533
				v-0.833h0.196v0.833h0.538v-1.681h0.197v1.681h0.899v-1.124c0-4.582-3.378-8.382-7.772-9.066l0.499-0.497
				c4.466,0.892,7.839,4.839,7.839,9.563v1.692h-19.03l0.698-0.762v0.194H12.314z"/>
			<path d="M16.42,13.631l0.795-0.795l-0.254-0.254l-0.391,0.39l-0.094-0.095l0.391-0.39l-0.282-0.28
				l-0.389,0.39l-0.095-0.095l0.391-0.39l-0.255-0.255l-0.391,0.391l-0.093-0.095l0.389-0.39l-0.258-0.261l-0.796,0.795
				l-0.095-0.093l0.796-0.794l-0.178-0.18l-0.391,0.393l-0.091-0.095l0.389-0.39l-0.281-0.281l-0.389,0.391l-0.096-0.094
				l0.392-0.391l-0.255-0.255l-0.391,0.391l-0.094-0.092l0.391-0.393l-0.237-0.235l-0.796,0.795l-0.093-0.095l0.795-0.795
				l-0.221-0.22l-0.392,0.39l-0.094-0.094l0.391-0.391l-0.281-0.283l-0.39,0.393l-0.095-0.094l0.392-0.391L13.518,9.14l-0.39,0.39
				l-0.094-0.095l0.39-0.39l-0.259-0.26L12.37,9.581l-0.095-0.095l0.797-0.795l-0.254-0.253l-0.39,0.391l-0.097-0.096l0.391-0.388
				l-0.279-0.282l-0.391,0.391l-0.095-0.096l0.391-0.39l-0.253-0.253l-0.392,0.39l-0.095-0.096L12,7.62l-0.258-0.26l-0.799,0.797
				L10.851,8.06l0.796-0.795l-0.878-0.876L10.771,19.4l-0.519,0.519V5.767c0-0.104,0.062-0.199,0.16-0.24
				c0.097-0.039,0.208-0.017,0.28,0.056l6.949,6.948l-1.162,1.163L16.42,13.631z"/>
			<path d="M12.325,17.849v-7.083c0-0.104,0.063-0.199,0.159-0.238c0.097-0.04,0.208-0.018,0.282,0.057
				l3.411,3.413l-0.367,0.365l-2.968-2.973v5.94L12.325,17.849z"/>
			<path d="M7.132,24.177l3.158,3.159c0.184,0.181,0.477,0.181,0.657-0.002l13.339-13.337
				c0.183-0.182,0.183-0.476,0-0.657l-3.158-3.159c-0.179-0.182-0.476-0.182-0.655,0L7.132,23.522
				C6.952,23.702,6.952,23.996,7.132,24.177z M7.444,23.85L20.8,10.493l3.174,3.174l-0.854,0.855l-2.392-2.39l-0.277,0.278
				l2.389,2.39l-0.762,0.764l-1.195-1.194l-0.278,0.276l1.196,1.195l-0.752,0.752l-1.193-1.194l-0.278,0.276l1.195,1.194l-0.83,0.83
				l-1.195-1.195l-0.277,0.277l1.195,1.194l-0.751,0.751l-2.39-2.391l-0.277,0.279l2.39,2.39l-0.764,0.764l-1.195-1.195
				l-0.275,0.279l1.192,1.192l-0.749,0.752l-1.195-1.194l-0.278,0.277l1.195,1.194l-0.829,0.829l-1.195-1.195l-0.278,0.279
				l1.195,1.193l-0.651,0.653l-2.39-2.392l-0.276,0.277l2.388,2.39l-0.696,0.698l-1.194-1.194l-0.279,0.277l1.195,1.195l-0.75,0.75
				l-1.196-1.195l-0.276,0.278l1.193,1.196l-0.827,0.828l-1.195-1.194l-0.277,0.277l1.192,1.194l-0.801,0.802L7.444,23.85z"/>
		</g>
	</g>
</g>
<g>
</g>
<g>
</g>
<g>
</g>
<g>
</g>
<g>
</g>
<g>
</g>
<g>
</g>
<g>
</g>
<g>
</g>
<g>
</g>
<g>
</g>
<g>
</g>
<g>
</g>
<g>
</g>
<g>
</g>
</svg>
